<?xml version="1.0" encoding="UTF-8"?>
<!DOCTYPE svg PUBLIC "-//W3C//DTD SVG 1.1//EN" "http://www.w3.org/Graphics/SVG/1.1/DTD/svg11.dtd">
<svg xmlns="http://www.w3.org/2000/svg" version="1.1" width="1024px" height="1024px" style="shape-rendering:geometricPrecision; text-rendering:geometricPrecision; image-rendering:optimizeQuality; fill-rule:evenodd; clip-rule:evenodd" xmlns:xlink="http://www.w3.org/1999/xlink">
<g><path style="opacity:1" fill="#293239" d="M -0.5,-0.5 C 340.833,-0.5 682.167,-0.5 1023.5,-0.5C 1023.5,340.833 1023.5,682.167 1023.5,1023.5C 682.167,1023.5 340.833,1023.5 -0.5,1023.5C -0.5,682.167 -0.5,340.833 -0.5,-0.5 Z"/></g>
<g><path style="opacity:1" fill="#f6f6f6" d="M 531.5,233.5 C 529.321,233.84 527.488,234.84 526,236.5C 525.167,285.503 525.333,334.503 526.5,383.5C 527.855,382.812 528.855,381.812 529.5,380.5C 555.303,363.761 581.303,347.261 607.5,331C 613.094,327.311 616.261,322.144 617,315.5C 617.667,307.167 617.667,298.833 617,290.5C 608.525,284.362 601.859,276.695 597,267.5C 590.678,241.506 600.178,224.339 625.5,216C 648.048,214.217 662.881,224.05 670,245.5C 672.857,265.79 665.19,280.456 647,289.5C 646.804,299.87 646.138,310.204 645,320.5C 642.437,335.459 634.937,347.292 622.5,356C 599.167,370.667 575.833,385.333 552.5,400C 538.29,411.213 529.457,425.713 526,443.5C 525.133,447.956 525.466,452.289 527,456.5C 554.565,480.842 581.731,505.509 608.5,530.5C 609.283,540.12 609.783,549.787 610,559.5C 610.383,558.944 610.883,558.611 611.5,558.5C 616.404,555.77 620.904,552.436 625,548.5C 626.846,545.431 627.846,542.098 628,538.5C 628.667,516.5 628.667,494.5 628,472.5C 607.022,461.874 599.688,445.207 606,422.5C 617.216,400.811 634.383,393.978 657.5,402C 679.322,415.139 684.822,433.306 674,456.5C 669.123,463.287 663.123,468.954 656,473.5C 655.167,491.842 655.334,510.176 656.5,528.5C 672.996,517.418 689.663,506.584 706.5,496C 715.002,489.164 720.002,480.33 721.5,469.5C 721.667,433.832 721.5,398.165 721,362.5C 720.617,361.944 720.117,361.611 719.5,361.5C 697.758,347.2 692.925,328.534 705,305.5C 721.305,287.011 739.805,284.511 760.5,298C 774.841,311.539 778.007,327.372 770,345.5C 765.594,352.741 759.761,358.407 752.5,362.5C 750.506,397.818 749.84,433.484 750.5,469.5C 748.315,487.369 740.648,502.536 727.5,515C 690.51,540.163 653.176,564.83 615.5,589C 614,590.5 612.5,592 611,593.5C 609.708,605.07 609.042,616.737 609,628.5C 607.975,636.55 605.975,644.217 603,651.5C 604.5,650 606,648.5 607.5,647C 664.167,609.667 720.833,572.333 777.5,535C 784.565,528.37 788.565,520.203 789.5,510.5C 790.471,500.183 790.638,489.85 790,479.5C 789.184,478.177 788.017,477.511 786.5,477.5C 764.146,461.744 759.979,442.078 774,418.5C 789.902,400.969 807.735,398.802 827.5,412C 843.569,428.071 845.735,445.905 834,465.5C 829.188,470.884 823.854,475.55 818,479.5C 817.87,493.869 817.203,508.202 816,522.5C 811.534,539.299 802.034,552.466 787.5,562C 720.167,606.333 652.833,650.667 585.5,695C 570.797,704.368 559.63,716.868 552,732.5C 548.123,742.967 546.29,753.801 546.5,765C 546.722,775.221 547.555,785.388 549,795.5C 551.393,808.892 558.226,819.392 569.5,827C 583.046,834.295 597.046,840.628 611.5,846C 614.818,848.795 616.318,852.295 616,856.5C 615.25,857.126 614.416,857.626 613.5,858C 545.834,858.5 478.167,858.667 410.5,858.5C 407.224,857.878 405.891,855.878 406.5,852.5C 408.973,849.196 411.973,846.362 415.5,844C 430.785,838.857 445.118,831.857 458.5,823C 469.266,812.891 474.933,800.391 475.5,785.5C 477.046,771.754 476.712,758.088 474.5,744.5C 469.57,724.73 458.57,709.23 441.5,698C 372.672,652.085 303.672,606.418 234.5,561C 219.101,550.37 209.601,535.87 206,517.5C 205.667,504.833 205.333,492.167 205,479.5C 186.697,469.561 179.031,454.228 182,433.5C 192.619,407.515 211.119,399.348 237.5,409C 258.421,424.101 262.587,442.935 250,465.5C 245.413,471.288 239.746,475.622 233,478.5C 232.248,490.862 232.581,503.196 234,515.5C 237.098,525.938 243.264,534.105 252.5,540C 306.734,575.749 361.067,611.249 415.5,646.5C 416.835,648.903 418.502,650.236 420.5,650.5C 416.513,643.753 414.346,636.419 414,628.5C 413.5,618.172 413.334,607.839 413.5,597.5C 412.523,594.011 410.523,591.177 407.5,589C 370.329,564.915 333.329,540.582 296.5,516C 283.065,503.628 275.065,488.461 272.5,470.5C 272.667,434.832 272.5,399.165 272,363.5C 271.617,362.944 271.117,362.611 270.5,362.5C 250.224,350.076 244.391,332.743 253,310.5C 267.592,287.852 286.426,283.352 309.5,297C 326.989,313.341 329.155,331.507 316,351.5C 312.562,355.441 308.729,358.775 304.5,361.5C 303.504,361.414 302.671,361.748 302,362.5C 301.5,397.832 301.333,433.165 301.5,468.5C 303.142,478.952 307.809,487.785 315.5,495C 332.319,505.663 348.986,516.496 365.5,527.5C 366.117,527.611 366.617,527.944 367,528.5C 367.667,510.167 367.667,491.833 367,473.5C 366.617,472.944 366.117,472.611 365.5,472.5C 346.749,460.765 340.249,444.098 346,422.5C 358.708,399.153 377.208,392.986 401.5,404C 420.205,418.326 424.372,436.16 414,457.5C 411.999,460.331 409.833,462.997 407.5,465.5C 403.099,467.785 398.932,470.451 395,473.5C 394.219,496.52 394.386,519.52 395.5,542.5C 396.259,545.849 397.926,548.682 400.5,551C 404.367,553.698 408.367,556.198 412.5,558.5C 413.05,548.752 413.883,539.085 415,529.5C 442.333,504.833 469.667,480.167 497,455.5C 498.105,439.816 493.772,425.816 484,413.5C 479.5,409 475,404.5 470.5,400C 446.335,384.417 422.002,369.083 397.5,354C 387.06,345.956 380.56,335.456 378,322.5C 377.83,311.659 377.33,300.992 376.5,290.5C 374.664,288.412 372.331,287.079 369.5,286.5C 351.626,271.994 347.793,254.327 358,233.5C 374.592,212.959 393.759,210.126 415.5,225C 431.109,241.583 432.609,259.416 420,278.5C 415.62,282.548 410.954,286.215 406,289.5C 405.101,299.893 405.434,310.227 407,320.5C 409.075,324.579 411.908,328.079 415.5,331C 441.223,347.188 466.89,363.355 492.5,379.5C 493.479,381.145 494.812,382.479 496.5,383.5C 497.667,334.503 497.833,285.503 497,236.5C 494.843,234.505 492.343,233.172 489.5,232.5C 472.175,217.507 469.009,199.841 480,179.5C 494.475,161.175 511.975,157.675 532.5,169C 547.826,181.571 552.326,197.405 546,216.5C 542.397,223.266 537.563,228.933 531.5,233.5 Z"/></g>
<g><path style="opacity:1" fill="#1a222a" d="M 531.5,233.5 C 530.685,234.837 529.518,235.837 528,236.5C 527.833,260.5 527.667,284.5 527.5,308.5C 527.5,332.843 528.167,356.843 529.5,380.5C 528.855,381.812 527.855,382.812 526.5,383.5C 525.333,334.503 525.167,285.503 526,236.5C 527.488,234.84 529.321,233.84 531.5,233.5 Z"/></g>
<g><path style="opacity:1" fill="#192229" d="M 489.5,232.5 C 492.343,233.172 494.843,234.505 497,236.5C 497.833,285.503 497.667,334.503 496.5,383.5C 494.812,382.479 493.479,381.145 492.5,379.5C 493.496,379.414 494.329,379.748 495,380.5C 495.667,332.5 495.667,284.5 495,236.5C 492.833,235.512 491,234.179 489.5,232.5 Z"/></g>
<g><path style="opacity:1" fill="#040b11" d="M 369.5,286.5 C 372.331,287.079 374.664,288.412 376.5,290.5C 376.333,321.159 375.833,321.159 375,290.5C 372.833,289.512 371,288.179 369.5,286.5 Z"/></g>
<g><path style="opacity:1" fill="#000003" d="M 304.5,361.5 C 304.217,362.289 303.717,362.956 303,363.5C 302.833,398.669 302.333,433.669 301.5,468.5C 301.333,433.165 301.5,397.832 302,362.5C 302.671,361.748 303.504,361.414 304.5,361.5 Z"/></g>
<g><path style="opacity:1" fill="#010103" d="M 752.5,362.5 C 751.859,400.125 751.192,435.792 750.5,469.5C 749.84,433.484 750.506,397.818 752.5,362.5 Z"/></g>
<g><path style="opacity:1" fill="#000002" d="M 719.5,361.5 C 720.117,361.611 720.617,361.944 721,362.5C 721.5,398.165 721.667,433.832 721.5,469.5C 720.667,434.336 720.167,399.002 720,363.5C 718.62,362.744 718.453,362.078 719.5,361.5 Z"/></g>
<g><path style="opacity:1" fill="#000105" d="M 270.5,362.5 C 271.117,362.611 271.617,362.944 272,363.5C 272.5,399.165 272.667,434.832 272.5,470.5C 271.809,435.834 271.142,399.834 270.5,362.5 Z"/></g>
<g><path style="opacity:1" fill="#010205" d="M 365.5,472.5 C 366.117,472.611 366.617,472.944 367,473.5C 367.667,491.833 367.667,510.167 367,528.5C 366.617,527.944 366.117,527.611 365.5,527.5C 366.822,509.196 366.822,490.863 365.5,472.5 Z"/></g>
<g><path style="opacity:1" fill="#1f2427" d="M 786.5,477.5 C 788.017,477.511 789.184,478.177 790,479.5C 790.638,489.85 790.471,500.183 789.5,510.5C 788.67,500.341 788.17,490.008 788,479.5C 787.283,478.956 786.783,478.289 786.5,477.5 Z"/></g>
<g><path style="opacity:1" fill="#283138" d="M 508.5,482.5 C 511.32,482.248 513.986,482.748 516.5,484C 538.385,503.89 560.218,523.723 582,543.5C 582.667,568.5 582.667,593.5 582,618.5C 582.616,625.996 580.116,632.162 574.5,637C 543.563,655.599 522.729,682.099 512,716.5C 505.179,693.359 492.679,673.859 474.5,658C 464.667,650.167 454.833,642.333 445,634.5C 442.567,629.102 441.234,623.435 441,617.5C 440.333,592.833 440.333,568.167 441,543.5C 463.396,522.931 485.896,502.598 508.5,482.5 Z"/></g>
<g><path style="opacity:1" fill="#162028" d="M 407.5,465.5 C 406.164,467.01 404.997,468.677 404,470.5C 403.667,470.167 403.333,469.833 403,469.5C 401.247,470.627 399.413,471.627 397.5,472.5C 396.833,495.996 396.167,519.33 395.5,542.5C 394.386,519.52 394.219,496.52 395,473.5C 398.932,470.451 403.099,467.785 407.5,465.5 Z"/></g>
<g><path style="opacity:1" fill="#020307" d="M 611.5,558.5 C 610.883,558.611 610.383,558.944 610,559.5C 609.783,549.787 609.283,540.12 608.5,530.5C 608.435,530.062 608.601,529.728 609,529.5C 609.333,530.167 609.667,530.833 610,531.5C 610.194,540.577 610.694,549.577 611.5,558.5 Z"/></g>
<g><path style="opacity:1" fill="#f7f7f7" d="M 534.5,553.5 C 535.646,566.425 535.813,579.425 535,592.5C 534.535,593.931 533.701,595.097 532.5,596C 519.261,597.629 505.928,597.962 492.5,597C 490.313,595.975 488.646,594.475 487.5,592.5C 487.333,579.829 487.5,567.162 488,554.5C 488.465,553.069 489.299,551.903 490.5,551C 503.739,549.371 517.072,549.038 530.5,550C 532.324,550.66 533.657,551.827 534.5,553.5 Z"/></g>
<g><path style="opacity:1" fill="#070b10" d="M 534.5,553.5 C 533.657,551.827 532.324,550.66 530.5,550C 517.072,549.038 503.739,549.371 490.5,551C 489.299,551.903 488.465,553.069 488,554.5C 487.5,567.162 487.333,579.829 487.5,592.5C 486.343,580.243 486.177,567.243 487,553.5C 487.465,552.069 488.299,550.903 489.5,550C 503.406,548.369 517.406,548.036 531.5,549C 534.259,549.834 535.259,551.334 534.5,553.5 Z"/></g>
<g><path style="opacity:1" fill="#121519" d="M 413.5,597.5 C 413.334,607.839 413.5,618.172 414,628.5C 414.346,636.419 416.513,643.753 420.5,650.5C 418.502,650.236 416.835,648.903 415.5,646.5C 416.043,646.44 416.376,646.107 416.5,645.5C 414.866,641.298 413.699,636.965 413,632.5C 412.174,620.659 412.341,608.993 413.5,597.5 Z"/></g>
<g><path style="opacity:1" fill="#1b2025" d="M 474.5,744.5 C 476.712,758.088 477.046,771.754 475.5,785.5C 474.788,772.818 474.121,759.985 473.5,747C 473.528,745.93 473.861,745.097 474.5,744.5 Z"/></g>
<g><path style="opacity:1" fill="#040b12" d="M 406.5,852.5 C 405.891,855.878 407.224,857.878 410.5,858.5C 430.329,859.332 450.329,859.832 470.5,860C 450.167,860.667 429.833,860.667 409.5,860C 405.707,858.447 404.707,855.947 406.5,852.5 Z"/></g>
</svg>
